<?xml version="1.0" standalone="no"?>
<!DOCTYPE svg PUBLIC "-//W3C//DTD SVG 20010904//EN"
 "http://www.w3.org/TR/2001/REC-SVG-20010904/DTD/svg10.dtd">
<svg version="1.0" xmlns="http://www.w3.org/2000/svg"
 width="1080.000000pt" height="1080.000000pt" viewBox="0 0 1080.000000 1080.000000"
 preserveAspectRatio="xMidYMid meet">

<g transform="translate(0.000000,1080.000000) scale(0.100000,-0.100000)"
fill="#000000" stroke="none">
<path d="M3450 9394 c0 -21 48 -185 95 -324 81 -237 114 -301 199 -385 66 -65
117 -96 726 -444 839 -479 821 -468 523 -327 -404 190 -868 438 -1185 632 -49
30 -88 51 -88 47 0 -5 60 -115 134 -247 86 -154 149 -255 177 -284 83 -85 120
-96 607 -178 240 -40 457 -78 482 -83 141 -32 -530 30 -862 79 -73 10 -133 18
-135 17 -1 -1 46 -43 105 -92 58 -50 135 -116 171 -149 36 -32 80 -64 98 -72
59 -26 111 -17 359 62 303 96 328 104 334 104 3 -1 -53 -29 -125 -65 -255
-125 -383 -261 -360 -382 3 -18 27 -63 52 -101 54 -78 236 -313 240 -308 2 1
-2 29 -9 62 -6 32 -11 113 -11 179 1 143 21 232 82 352 37 74 134 209 174 242
9 7 -12 -47 -47 -120 -95 -197 -119 -286 -120 -434 -1 -107 1 -125 23 -165 13
-25 39 -61 58 -82 l35 -36 -33 -48 c-80 -117 -231 -251 -383 -342 -54 -32 -66
-43 -52 -48 28 -11 228 2 261 17 99 45 164 120 236 274 39 83 41 86 59 70 22
-20 19 -28 -37 -143 -48 -97 -131 -221 -205 -304 l-60 -68 39 0 c66 0 133 29
184 80 53 53 97 154 124 285 9 44 18 81 20 83 3 3 53 -41 193 -173 l44 -40
-50 100 c-112 226 -186 473 -222 738 -12 91 -25 374 -17 367 3 -3 64 -196 136
-430 71 -234 143 -463 159 -510 l29 -85 27 85 c14 47 83 273 153 503 69 230
130 414 134 410 9 -10 -6 -275 -21 -385 -34 -236 -135 -555 -231 -724 -16 -28
-29 -54 -29 -58 0 -4 60 48 132 115 l133 123 16 -85 c53 -281 149 -399 325
-399 l37 0 -69 73 c-38 39 -91 104 -117 143 -50 76 -147 269 -147 294 0 8 9
21 19 27 18 11 21 8 35 -35 48 -143 178 -305 265 -331 54 -16 271 -28 271 -15
0 5 -29 26 -64 46 -155 91 -303 224 -390 350 l-38 56 32 48 c42 60 70 150 70
224 0 111 -77 343 -171 514 -43 78 -16 63 63 -35 65 -81 138 -221 163 -314 22
-80 30 -281 16 -374 -6 -40 -10 -75 -9 -77 7 -6 245 311 265 354 28 58 29 121
4 170 -44 85 -212 214 -374 286 -48 21 -86 40 -84 43 7 6 369 -105 462 -142
102 -41 172 -47 226 -20 19 10 63 43 98 74 35 31 98 85 140 120 42 35 89 74
105 88 16 13 26 26 24 29 -3 2 -66 -4 -139 -15 -300 -45 -752 -93 -861 -90
-58 1 40 20 537 104 215 35 406 69 426 75 42 12 117 63 151 105 33 39 292 504
285 511 -3 3 -30 -10 -60 -29 -148 -95 -568 -327 -817 -452 -160 -80 -549
-265 -559 -265 -15 0 707 416 1104 635 386 213 412 248 561 727 31 98 54 183
52 190 -2 6 -40 -35 -83 -92 -150 -198 -375 -411 -594 -561 -53 -37 -197 -126
-319 -198 -549 -323 -617 -365 -664 -414 -50 -52 -105 -154 -141 -261 -12 -37
-27 -68 -32 -69 -6 0 -25 29 -44 66 -31 62 -34 75 -39 184 -5 131 -17 166 -74
220 -46 45 -121 75 -198 80 -57 4 -69 2 -101 -20 -20 -13 -58 -28 -84 -31 -54
-9 -105 -50 -105 -85 0 -19 6 -21 55 -21 46 0 59 -4 89 -30 89 -79 53 -270
-64 -342 -76 -45 -78 -45 -115 59 -71 200 -148 288 -345 397 -370 205 -778
461 -935 584 -119 95 -322 301 -418 425 -87 113 -97 124 -97 111z m2125 -1134
c15 -6 8 -9 -27 -9 -27 -1 -48 4 -48 9 0 12 47 12 75 0z"/>
<path d="M5406 6605 c29 -79 33 -154 10 -209 -54 -129 -243 -316 -440 -434
l-70 -42 131 0 c123 0 134 2 184 28 95 50 195 204 254 395 39 124 23 199 -60
293 l-35 39 26 -70z"/>
<path d="M5788 6632 c-40 -42 -69 -105 -75 -164 -10 -101 87 -336 185 -449 72
-81 120 -99 272 -99 l124 0 -119 79 c-143 93 -208 151 -287 250 -115 144 -135
213 -95 331 14 41 24 76 23 77 -1 2 -14 -10 -28 -25z"/>
<path d="M5663 6263 c9 -159 59 -326 121 -408 36 -47 117 -86 189 -92 l62 -5
-57 58 c-120 125 -230 311 -287 487 -13 37 -25 67 -28 67 -3 0 -3 -48 0 -107z"/>
<path d="M5500 6263 c-100 -230 -155 -322 -261 -437 l-64 -69 61 5 c146 14
232 114 284 331 19 79 38 267 28 267 -3 0 -25 -44 -48 -97z"/>
<path d="M5596 6189 c-3 -8 -22 -90 -42 -184 -41 -195 -41 -250 2 -346 37 -81
47 -88 73 -46 63 102 66 194 17 420 -35 160 -42 181 -50 156z"/>
<path d="M5220 5338 c-27 -29 -168 -318 -155 -318 3 0 21 34 40 75 58 129 50
82 -15 -85 -12 -30 -33 -86 -46 -125 -34 -94 -75 -198 -83 -210 -4 -5 -17 -41
-29 -80 -102 -336 -150 -460 -169 -442 -7 8 19 97 64 221 23 66 41 121 39 123
-6 6 -64 -151 -97 -262 -16 -55 -39 -113 -50 -129 -17 -22 -18 -30 -8 -36 10
-7 6 -35 -17 -137 -19 -86 -29 -156 -29 -213 0 -80 2 -89 35 -144 47 -78 111
-136 150 -136 16 0 30 4 30 8 0 5 -12 33 -26 63 -44 90 -43 155 6 393 14 71
22 76 104 76 89 0 316 17 416 31 145 21 142 21 164 1 33 -30 43 -33 70 -22 36
13 33 32 -14 78 -35 36 -46 41 -105 47 -63 7 -118 4 -275 -15 -145 -18 -300
-22 -299 -8 0 12 98 102 189 174 22 17 37 34 34 36 -6 7 242 242 341 323 93
77 281 273 296 308 10 23 9 31 -7 48 -18 20 -65 49 -79 49 -4 0 -97 -91 -208
-202 -239 -239 -487 -474 -487 -461 0 5 16 61 36 123 48 153 153 406 257 623
47 98 84 184 81 192 -8 19 -79 55 -109 55 -13 0 -34 -10 -45 -22z m310 -526
c0 -17 -558 -557 -567 -548 -8 7 150 176 165 176 6 0 12 6 12 13 0 22 358 366
383 367 4 0 7 -3 7 -8z m-510 -281 c0 -10 -9 -21 -20 -24 -18 -5 -18 -4 -3 19
19 29 23 30 23 5z m-38 -94 c-5 -7 -17 -38 -26 -69 -9 -31 -21 -60 -28 -64 -7
-5 -9 -2 -6 7 3 8 14 44 24 80 17 61 35 90 42 68 2 -5 0 -15 -6 -22z m158 -51
c0 -2 -8 -10 -17 -17 -16 -13 -17 -12 -4 4 13 16 21 21 21 13z m-130 -129 c0
-2 -15 -14 -32 -27 l-33 -23 24 26 c21 23 41 35 41 24z m-109 -44 c-12 -20
-14 -14 -5 12 4 9 9 14 11 11 3 -2 0 -13 -6 -23z m-41 -31 c0 -2 -9 -15 -20
-29 -20 -25 -28 -14 -15 20 5 12 35 20 35 9z m-84 -77 c-4 -14 -11 -25 -16
-25 -15 0 -12 48 3 53 18 6 20 1 13 -28z m-36 -131 c0 -20 -7 -64 -16 -98 -9
-33 -22 -99 -29 -146 l-13 -85 -1 85 c-1 55 7 119 21 182 23 101 38 126 38 62z
m80 -96 c-13 -46 -26 -102 -30 -126 -9 -57 -23 -68 -15 -12 7 51 45 211 52
223 15 26 12 -12 -7 -85z"/>
<path d="M3402 5220 c-40 -10 -109 -38 -154 -62 -76 -39 -231 -143 -288 -194
-93 -81 -120 -108 -114 -113 3 -3 16 6 27 20 32 38 180 155 279 220 89 58 206
112 268 123 19 4 2 -6 -40 -22 -148 -57 -255 -121 -350 -212 -30 -28 -72 -63
-93 -76 -21 -14 -35 -29 -32 -34 3 -6 0 -10 -8 -10 -8 0 -17 -9 -20 -21 -4
-14 -10 -18 -18 -13 -9 5 -10 2 -6 -10 5 -12 3 -16 -5 -14 -13 5 -58 -43 -58
-61 0 -6 -4 -11 -9 -11 -5 0 -13 -9 -16 -20 -4 -11 -10 -18 -14 -15 -5 2 -16
-4 -26 -15 -10 -11 -16 -20 -12 -20 3 0 -11 -17 -31 -38 -20 -22 -57 -68 -82
-102 -25 -35 -64 -87 -88 -114 -51 -60 -98 -154 -106 -212 -5 -35 -1 -48 22
-80 16 -22 45 -48 65 -59 44 -23 62 -16 92 37 17 31 17 38 5 53 -8 9 -15 22
-16 29 -1 6 -5 18 -9 27 -12 31 111 238 234 394 30 39 109 124 175 191 129
129 265 227 399 289 122 56 321 74 397 35 33 -17 40 -26 49 -70 23 -109 4
-194 -84 -370 -29 -58 -50 -111 -48 -117 3 -7 -2 -16 -11 -19 -9 -3 -13 -10
-11 -15 3 -4 -3 -26 -14 -49 -37 -77 -4 -39 58 68 35 59 72 121 82 137 l19 30
-6 -35 c-4 -19 -24 -68 -45 -109 -22 -40 -38 -75 -36 -78 2 -2 15 17 28 41 13
25 25 43 27 42 5 -6 -53 -121 -65 -129 -7 -4 -13 -14 -13 -20 0 -16 -80 -123
-90 -120 -5 1 -14 -5 -22 -15 -12 -15 -11 -16 5 -3 33 26 16 -2 -65 -107 -101
-133 -168 -207 -188 -207 -8 -1 -14 -7 -12 -15 5 -21 -119 -141 -139 -135 -9
3 -22 -1 -29 -10 -16 -19 -44 -20 -33 -1 4 8 51 58 103 112 178 186 381 435
394 486 l7 23 -18 -24 c-10 -13 -28 -34 -39 -47 -12 -12 -24 -27 -25 -32 -11
-28 -173 -227 -254 -312 -44 -47 -104 -112 -132 -144 -42 -47 -54 -56 -59 -43
-3 10 1 29 11 43 16 25 16 25 -4 15 -17 -9 -24 -8 -41 9 -11 11 -26 20 -33 20
-15 0 -15 -11 4 275 7 110 13 227 14 260 0 56 -2 60 -34 82 -40 27 -92 30
-113 6 -9 -10 -28 -58 -43 -108 -15 -49 -31 -103 -36 -119 -10 -31 -5 -42 21
-48 14 -3 13 -25 -2 -203 -9 -110 -17 -238 -17 -284 -1 -70 -3 -82 -16 -77
-18 7 -20 -5 -2 -23 9 -9 11 -63 9 -214 -3 -283 15 -347 111 -396 82 -41 135
-25 96 28 -47 63 -47 531 -1 531 4 0 39 -23 77 -51 124 -91 263 -149 404 -170
163 -23 299 13 402 109 44 40 64 52 88 52 18 0 41 5 52 10 26 14 65 78 79 128
6 23 15 44 20 47 6 3 10 13 10 22 0 19 112 253 140 292 10 16 44 78 74 139 31
61 59 113 64 116 5 3 2 -32 -5 -77 -7 -45 -16 -175 -20 -289 l-6 -208 26 -34
c37 -48 93 -81 118 -70 18 8 20 22 23 229 5 302 35 516 93 647 15 35 23 66 20
80 -9 32 -57 58 -110 58 -37 0 -49 -5 -64 -25 l-18 -25 -45 31 c-38 26 -51 30
-85 24 -54 -8 -144 -50 -178 -83 -80 -76 -237 -407 -291 -612 -56 -212 -57
-276 -4 -336 l31 -35 -23 -24 c-13 -13 -39 -30 -59 -37 -51 -17 -173 -15 -261
6 -83 19 -233 86 -307 137 -26 19 -51 33 -54 32 -3 -1 -5 6 -4 15 1 9 57 73
126 142 281 283 510 612 594 855 39 114 43 164 19 260 -15 58 -23 70 -86 130
-74 71 -127 100 -211 116 -103 20 -179 20 -255 -1z m275 -46 c-3 -3 -12 -4
-19 -1 -8 3 -5 6 6 6 11 1 17 -2 13 -5z m-197 -18 c-8 -8 -40 -24 -70 -36 -77
-30 -259 -142 -338 -208 -37 -30 -102 -89 -144 -131 -43 -41 -79 -73 -82 -70
-6 6 128 148 199 209 82 71 206 154 228 153 10 -1 15 3 11 9 -5 8 -1 9 10 5 9
-4 15 -3 12 2 -7 11 141 74 154 66 5 -3 11 -1 15 5 3 5 9 10 13 10 3 0 0 -6
-8 -14z m-159 -36 c-46 -22 -86 -40 -90 -39 -10 1 152 79 164 79 5 0 -28 -18
-74 -40z m546 -317 c-3 -10 -5 -4 -5 12 0 17 2 24 5 18 2 -7 2 -21 0 -30z
m-23 -210 c-20 -43 -41 -85 -45 -93 -5 -8 -17 -31 -26 -50 -23 -47 -121 -198
-134 -205 -5 -4 -46 -54 -90 -111 -45 -58 -83 -103 -86 -101 -2 3 46 71 107
152 105 139 176 252 263 414 20 39 40 71 42 71 3 0 -12 -35 -31 -77z m-39 17
c-9 -16 -18 -30 -21 -30 -2 0 2 14 11 30 9 17 18 30 21 30 2 0 -2 -13 -11 -30z
m618 -28 c28 -31 31 -75 8 -118 -12 -21 -42 -77 -67 -124 -67 -123 -181 -318
-246 -419 -9 -14 -31 -52 -49 -84 -18 -31 -33 -56 -35 -54 -4 3 28 130 49 197
21 68 117 304 128 315 5 5 9 15 9 21 0 18 67 130 112 188 21 27 38 54 38 60 0
13 20 36 30 36 4 0 14 -8 23 -18z m32 -144 c-1 -18 -13 -53 -25 -78 -70 -143
-82 -159 -84 -107 -1 19 3 27 16 27 12 0 16 6 13 21 -5 24 20 79 35 79 6 0 9
3 8 8 -2 9 29 82 36 82 2 0 3 -15 1 -32z m52 -220 c-3 -7 -5 -2 -5 12 0 14 2
19 5 13 2 -7 2 -19 0 -25z m-227 -91 c0 -16 -53 -102 -69 -111 -6 -4 -11 -3
-11 2 0 6 7 12 15 16 8 3 15 12 15 21 0 8 5 15 10 15 6 0 10 5 10 11 0 5 -6 7
-12 3 -7 -4 -3 4 10 18 12 13 19 28 15 31 -3 4 -1 7 5 7 7 0 12 -6 12 -13z
m23 -12 c-3 -9 -8 -14 -10 -11 -3 3 -2 9 2 15 9 16 15 13 8 -4z m-1403 -221
c-7 -98 -16 -183 -22 -189 -10 -9 -4 234 7 290 2 11 4 38 4 60 1 27 4 36 11
29 8 -8 7 -65 0 -190z m530 85 c0 -5 -4 -9 -10 -9 -5 0 -10 7 -10 16 0 8 5 12
10 9 6 -3 10 -10 10 -16z m-91 -86 c-22 -27 -52 -57 -79 -78 -25 -19 41 58 70
82 21 18 25 16 9 -4z m-164 -103 c-10 -11 -20 -18 -23 -15 -7 6 18 35 31 35 5
0 2 -9 -8 -20z m-295 -152 c0 -16 -3 -19 -11 -11 -6 6 -8 16 -5 22 11 17 16
13 16 -11z m1 -60 c1 -13 3 -113 4 -223 1 -139 -1 -191 -7 -170 -10 29 -27
385 -20 405 7 19 22 10 23 -12z m524 -78 c39 -16 65 -30 59 -30 -11 0 -135 48
-143 56 -12 11 22 1 84 -26z"/>
<path d="M8051 4922 c-63 -65 -272 -351 -363 -497 -178 -285 -240 -380 -249
-383 -5 -2 -7 -7 -4 -12 2 -4 -53 -11 -123 -14 -70 -4 -149 -9 -177 -11 -36
-3 -43 -2 -25 4 25 9 25 9 -5 11 -26 2 -24 3 15 12 25 5 82 7 127 4 50 -4 84
-2 88 4 3 5 30 11 58 11 44 1 39 3 -33 11 -65 7 -118 6 -228 -7 l-142 -17
-143 77 c-149 81 -229 133 -225 146 6 17 134 112 187 138 114 57 200 82 283
82 99 -1 118 15 101 78 -3 14 -30 39 -67 63 -57 37 -65 40 -117 35 -106 -9
-335 -120 -438 -213 -43 -39 -45 -44 -48 -99 -1 -50 -6 -62 -34 -91 -38 -40
-28 -46 12 -8 l27 26 7 -22 c6 -17 -7 -36 -65 -98 -180 -192 -276 -281 -220
-202 12 17 26 30 31 30 5 0 9 5 9 11 0 5 -32 -15 -72 -46 -40 -31 -86 -63
-103 -72 -29 -14 -29 -14 5 14 39 31 230 209 273 255 16 16 26 32 23 35 -5 5
-47 -30 -151 -128 -79 -75 -279 -222 -340 -250 -46 -21 -115 -25 -133 -7 -27
27 -11 131 44 278 47 127 53 135 96 120 29 -11 43 -9 113 15 108 36 158 70
235 160 80 94 116 155 131 221 11 48 10 55 -12 95 -33 60 -58 71 -150 66 -103
-5 -171 -38 -264 -131 -107 -106 -243 -295 -282 -392 -41 -104 -67 -242 -59
-314 8 -66 57 -171 93 -200 42 -33 157 -64 211 -56 97 13 275 166 456 391 27
33 70 83 97 112 l48 51 38 -36 c51 -48 168 -124 226 -146 26 -10 47 -21 47
-24 0 -4 -42 -25 -92 -46 -157 -65 -297 -157 -348 -228 -54 -74 -36 -139 52
-191 47 -27 168 -47 168 -28 0 7 -21 11 -51 11 -27 0 -48 4 -45 9 3 5 25 7 49
5 27 -2 15 3 -35 15 -77 18 -128 43 -128 61 0 5 17 2 37 -6 20 -9 71 -17 112
-19 l76 -4 -60 8 c-76 11 -136 33 -149 55 -9 14 -3 24 35 59 76 69 99 85 207
137 114 56 270 105 305 96 28 -7 107 -58 147 -96 l31 -29 -20 -38 c-12 -25
-37 -49 -73 -70 -52 -31 -84 -43 -223 -82 -82 -23 -50 -27 45 -6 36 8 78 18
94 22 51 11 20 -14 -37 -30 -127 -37 -127 -37 -57 -31 72 6 166 30 175 45 4 5
15 9 27 9 35 0 3 -27 -60 -51 -64 -24 -262 -59 -334 -59 -28 0 -48 -5 -48 -11
0 -11 48 -8 215 18 187 28 268 70 316 164 16 32 29 73 29 91 0 36 -45 121 -79
152 -11 11 -21 23 -21 28 0 9 120 9 222 -1 l66 -6 -70 -145 c-74 -155 -112
-257 -123 -332 -6 -41 -3 -54 26 -108 33 -62 79 -106 103 -97 7 3 22 25 34 50
47 99 461 594 576 688 52 42 66 40 65 -11 0 -23 -1 -23 -8 -5 l-8 20 -6 -20
c-19 -62 -69 -321 -74 -385 -5 -64 -2 -83 17 -128 16 -36 26 -49 31 -40 6 9
13 1 24 -24 18 -44 40 -58 90 -58 61 0 104 27 127 79 18 42 30 121 18 121 -3
0 -30 -20 -60 -45 -30 -24 -67 -49 -83 -54 -29 -11 -28 -12 -43 38 -6 20 24
211 56 356 40 177 40 185 24 218 -32 67 -39 77 -51 72 -7 -2 -13 2 -13 10 0
19 -51 28 -85 15 -42 -16 -226 -200 -391 -392 -79 -92 -148 -169 -154 -173 -9
-6 55 140 93 210 8 17 22 44 30 61 8 17 20 35 26 38 6 4 11 18 11 31 0 13 12
37 26 54 14 17 27 38 28 46 1 8 11 22 22 31 10 8 13 13 6 9 -9 -5 -10 -1 -1
19 7 14 17 24 23 23 6 -1 10 6 10 16 -1 9 4 17 11 17 8 0 13 8 13 18 -1 18 99
181 133 218 10 11 19 25 19 30 0 11 87 138 145 209 21 28 79 91 127 141 48 50
88 98 88 106 0 16 -44 60 -77 77 -40 21 -65 13 -112 -37z m-128 -219 c-19 -38
-42 -76 -51 -86 -8 -9 -13 -19 -10 -22 2 -3 -16 -27 -41 -54 -43 -46 -76 -95
-261 -393 -41 -67 -81 -123 -88 -126 -19 -6 7 52 62 137 115 178 136 210 176
276 41 68 236 335 244 335 2 0 -12 -30 -31 -67z m-1588 -70 c-11 -63 -63 -148
-142 -233 -59 -63 -90 -87 -147 -115 -68 -33 -106 -43 -106 -29 0 3 9 18 20
34 11 15 24 38 29 51 20 55 159 212 225 255 22 15 57 38 76 51 47 31 53 29 45
-14z m1515 -82 c-5 -11 -15 -23 -22 -27 -7 -5 -8 -2 -3 7 21 37 44 55 25 20z
m-46 -68 c-9 -16 -27 -43 -38 -60 -12 -18 -25 -33 -29 -33 -10 0 -3 12 40 73
37 50 57 65 27 20z m-1109 -38 c-16 -14 -34 -25 -39 -25 -5 0 -29 -17 -54 -37
-34 -28 -42 -31 -33 -14 13 23 125 101 145 101 6 -1 -2 -12 -19 -25z m1015
-105 c-6 -11 -13 -20 -16 -20 -2 0 0 9 6 20 6 11 13 20 16 20 2 0 0 -9 -6 -20z
m290 -213 c0 -8 -48 -58 -106 -113 -59 -54 -129 -127 -158 -161 -106 -127
-258 -294 -263 -289 -3 3 13 30 36 60 23 31 40 61 39 68 -2 7 2 12 8 11 16 -3
50 37 61 72 5 17 13 28 16 25 4 -3 15 9 26 25 21 35 67 83 104 108 16 10 24
23 21 32 -4 8 -1 15 5 15 17 0 16 -1 78 56 32 30 64 54 71 54 6 0 12 5 12 11
0 12 29 38 43 39 4 0 7 -6 7 -13z m-1120 -157 c-8 -5 -19 -10 -25 -10 -5 0 -3
5 5 10 8 5 20 10 25 10 6 0 3 -5 -5 -10z m558 -20 c-12 -36 -194 -428 -197
-425 -6 7 32 110 73 200 24 50 57 123 76 163 18 39 37 72 42 72 5 0 8 -4 6
-10z m-303 -41 l20 -23 -32 23 c-38 26 -56 49 -27 33 11 -6 28 -20 39 -33z
m-915 -13 c0 -2 -7 -7 -16 -10 -8 -3 -12 -2 -9 4 6 10 25 14 25 6z m1777 -413
c-2 -16 -4 -3 -4 27 0 30 2 43 4 28 2 -16 2 -40 0 -55z"/>
<path d="M4980 4830 c-6 -11 -8 -20 -6 -20 3 0 10 9 16 20 6 11 8 20 6 20 -3
0 -10 -9 -16 -20z"/>
<path d="M2716 4722 l-30 -37 37 34 c38 36 42 42 30 40 -5 0 -21 -17 -37 -37z"/>
<path d="M4916 4675 c-9 -26 -7 -32 5 -12 6 10 9 21 6 23 -2 3 -7 -2 -11 -11z"/>
<path d="M2667 4663 c-4 -3 -7 -11 -7 -17 0 -6 5 -5 12 2 6 6 9 14 7 17 -3 3
-9 2 -12 -2z"/>
<path d="M2613 4588 c-28 -41 -62 -99 -50 -88 14 14 87 115 87 122 0 14 -6 8
-37 -34z"/>
<path d="M2521 4444 c0 -11 3 -14 6 -6 3 7 2 16 -1 19 -3 4 -6 -2 -5 -13z"/>
<path d="M6396 4109 c-54 -55 -96 -102 -94 -105 2 -2 51 44 108 101 58 58 100
105 94 105 -6 0 -54 -45 -108 -101z"/>
<path d="M7168 4023 c17 -2 47 -2 65 0 17 2 3 4 -33 4 -36 0 -50 -2 -32 -4z"/>
<path d="M6748 3593 c6 -2 18 -2 25 0 6 3 1 5 -13 5 -14 0 -19 -2 -12 -5z"/>
<path d="M6780 3560 c0 -12 8 -12 35 0 18 8 17 9 -7 9 -16 1 -28 -3 -28 -9z"/>
<path d="M5326 2568 c-31 -27 -147 -345 -201 -548 -18 -69 -48 -182 -66 -252
-24 -92 -38 -128 -49 -128 -43 -1 -184 -45 -268 -85 l-95 -45 -131 25 c-153
29 -236 52 -236 65 0 23 73 120 131 176 82 77 132 110 211 137 49 17 64 27 66
44 5 35 -35 67 -101 82 -54 12 -61 11 -99 -9 -102 -53 -265 -214 -311 -307
-20 -41 -20 -43 -2 -88 31 -82 65 -111 168 -144 51 -16 119 -32 152 -36 l60
-7 -40 -31 c-109 -86 -219 -207 -260 -287 -27 -52 -23 -109 9 -137 36 -30 97
-45 154 -37 67 9 89 26 27 20 -38 -4 -43 -3 -20 3 36 10 21 13 -62 11 -81 -2
-89 16 -10 23 34 3 78 13 97 22 19 9 24 13 10 9 -14 -4 -58 -9 -98 -11 -83 -5
-94 4 -66 59 57 110 280 311 370 334 22 6 159 -37 177 -55 5 -5 7 -25 3 -44
-9 -50 -93 -131 -204 -196 -51 -30 -92 -56 -92 -58 0 -5 138 66 182 93 21 13
38 20 38 16 0 -13 -31 -38 -78 -62 -54 -28 -65 -46 -15 -25 55 23 122 64 141
86 9 10 23 19 32 19 23 -1 -75 -87 -115 -101 -19 -7 -37 -19 -39 -26 -7 -18
67 21 117 61 57 45 87 102 90 169 2 66 -16 97 -86 142 -25 17 -46 32 -46 35
-2 12 225 77 235 68 2 -3 -5 -64 -16 -136 -11 -72 -20 -177 -20 -235 l0 -103
36 -42 c38 -45 81 -72 113 -72 15 0 22 9 26 38 18 109 228 612 309 740 22 36
30 41 42 32 16 -14 19 -34 3 -24 -8 4 -9 -14 -4 -62 27 -296 38 -342 90 -399
20 -22 34 -34 30 -27 -11 21 10 13 32 -12 11 -13 37 -26 58 -30 24 -5 39 -14
42 -25 5 -20 43 -41 74 -41 27 0 111 81 168 160 69 98 177 240 216 285 l35 40
1 -30 c0 -26 3 -22 20 25 41 116 50 79 24 -106 -9 -60 -15 -118 -14 -129 2
-34 0 -38 -18 -24 -15 13 -15 12 -3 -11 18 -35 69 -93 94 -107 12 -7 44 -12
72 -13 96 0 168 72 284 288 81 152 100 204 107 298 8 104 -14 156 -85 201 -39
25 -60 33 -78 29 -31 -8 -30 -19 1 -36 62 -33 76 -163 30 -300 -15 -44 -31
-78 -36 -74 -5 3 -10 -1 -10 -8 -1 -7 -2 -18 -3 -25 0 -6 -11 -23 -23 -37 -13
-14 -23 -29 -23 -32 0 -4 -7 -12 -14 -18 -8 -6 -16 -17 -18 -25 -4 -19 -20
-39 -82 -103 -97 -100 -117 -107 -134 -45 -10 35 -7 62 29 269 13 70 18 126
13 140 -4 13 -7 26 -6 31 1 4 -12 7 -28 7 -20 0 -30 5 -30 15 0 30 -29 13 -92
-53 -84 -89 -109 -125 -98 -141 6 -10 15 -2 36 30 15 24 26 44 23 44 -2 0 15
18 38 39 24 21 40 43 36 49 -3 6 -1 7 5 3 31 -19 8 -60 -139 -245 -82 -105
-157 -191 -165 -191 -10 0 -2 18 26 59 22 33 40 64 40 70 0 5 16 24 35 42 33
31 48 58 24 44 -6 -4 -5 2 2 13 7 12 17 18 21 16 4 -3 8 3 8 13 -1 13 -14 4
-46 -32 -24 -27 -42 -56 -39 -63 3 -7 1 -11 -4 -8 -5 3 -34 -25 -64 -62 -49
-59 -122 -134 -90 -92 12 16 115 244 190 420 74 172 82 230 33 230 -10 0 -22
5 -25 10 -17 27 -65 -1 -78 -45 -10 -35 -82 -205 -179 -420 -52 -115 -98 -218
-101 -227 -9 -24 -22 -22 -40 5 -18 28 -43 190 -52 332 -4 55 -11 117 -16 137
-12 46 -63 88 -117 95 -35 5 -41 2 -69 -32 -42 -50 -128 -218 -207 -402 -35
-83 -72 -164 -81 -180 -16 -27 -16 -27 -10 -3 3 14 10 61 15 105 5 44 14 103
20 130 6 28 13 69 15 93 2 23 7 48 12 55 4 6 8 20 9 30 1 9 3 20 4 25 1 4 2
18 1 32 -2 20 0 22 8 10 8 -12 11 -7 12 20 3 54 18 123 49 225 10 33 33 107
50 165 18 58 36 110 40 115 3 6 15 33 25 60 10 28 32 75 50 105 18 30 36 64
39 76 7 24 -15 48 -54 59 -14 3 -32 9 -42 11 -9 3 -28 -6 -42 -18z m-82 -278
c-15 -83 -14 -80 -38 -132 -9 -21 -28 -80 -42 -130 -14 -51 -34 -120 -43 -153
-10 -33 -29 -104 -42 -157 -12 -54 -27 -98 -31 -98 -15 0 -8 46 26 165 18 66
46 167 61 224 26 101 115 365 121 359 1 -2 -4 -37 -12 -78z m-19 -140 c-4 -12
-9 -19 -12 -17 -3 3 -2 15 2 27 4 12 9 19 12 17 3 -3 2 -15 -2 -27z m-30 -95
c-9 -31 -19 -54 -22 -51 -2 2 3 29 13 60 10 31 20 54 22 51 3 -2 -3 -30 -13
-60z m1574 -166 c1 8 3 12 5 10 10 -10 -27 -189 -50 -239 -35 -78 -108 -199
-145 -240 -29 -33 -30 -34 -25 -9 3 14 29 65 57 115 28 49 58 105 66 124 8 19
24 54 34 77 11 23 25 77 31 120 9 58 14 71 19 53 4 -14 7 -19 8 -11z m-1309
-50 c0 -7 -23 -52 -51 -101 -48 -83 -84 -160 -192 -405 -22 -51 -44 -93 -48
-93 -8 0 -6 10 8 48 10 27 15 46 16 64 1 9 4 15 8 13 3 -3 12 15 19 38 8 23
18 48 24 56 8 11 8 13 -1 7 -7 -4 -13 -2 -13 3 0 6 4 11 9 11 4 0 14 20 21 45
7 25 23 56 36 70 14 16 21 32 17 42 -5 12 -3 14 7 8 9 -6 11 -4 5 5 -5 8 -2
17 6 24 8 6 25 33 39 59 14 27 32 54 41 60 9 7 17 17 19 22 6 24 13 35 21 35
5 0 9 -5 9 -11z m-1160 -47 c0 -5 -10 -19 -22 -32 -13 -13 -35 -42 -50 -64
-28 -41 -37 -43 -17 -3 13 25 78 107 85 107 2 0 4 -4 4 -8z m1880 -96 c0 -2
-8 -10 -17 -17 -16 -13 -17 -12 -4 4 13 16 21 21 21 13z m-1160 -73 c0 -15
-164 -73 -190 -67 -20 5 -22 4 -10 -6 12 -9 11 -10 -9 -5 -14 4 -21 3 -18 -2
4 -6 -6 -16 -21 -24 -15 -7 -31 -15 -36 -18 -5 -2 -6 2 -1 9 6 10 3 12 -11 7
-18 -7 -18 -7 0 8 31 24 124 55 142 48 12 -5 15 -3 9 6 -6 10 -2 11 15 6 17
-5 21 -4 15 6 -6 9 -3 11 8 6 10 -3 17 -3 17 2 0 4 15 13 33 19 40 13 57 14
57 5z m891 -110 c-11 -21 -36 -76 -55 -123 -19 -47 -35 -75 -35 -63 -1 37 99
259 106 236 3 -7 -5 -30 -16 -50z m-871 45 c-56 -429 -58 -441 -59 -370 -1 40
5 114 13 165 8 50 17 118 21 150 4 31 11 57 16 57 5 0 9 -1 9 -2z m-250 -113
c14 -8 21 -14 15 -14 -5 0 -21 6 -35 14 -14 8 -20 14 -15 14 6 0 21 -6 35 -14z
m817 -77 c-3 -8 -6 -5 -6 6 -1 11 2 17 5 13 3 -3 4 -12 1 -19z m138 -8 c-9
-16 -18 -30 -21 -30 -2 0 2 14 11 30 9 17 18 30 21 30 2 0 -2 -13 -11 -30z
m-128 -32 c-3 -8 -6 -5 -6 6 -1 11 2 17 5 13 3 -3 4 -12 1 -19z"/>
<path d="M4750 1530 c-8 -5 -10 -10 -5 -10 6 0 17 5 25 10 8 5 11 10 5 10 -5
0 -17 -5 -25 -10z"/>
<path d="M8084 2220 c-32 -13 -253 -305 -412 -545 -190 -286 -337 -569 -372
-713 -11 -46 -10 -59 5 -97 20 -53 66 -105 92 -105 12 0 26 13 37 36 40 85
439 542 530 606 23 17 30 18 37 7 5 -8 9 -21 9 -29 0 -12 -2 -13 -9 -1 -11 16
-10 17 -45 -134 -44 -188 -49 -240 -31 -301 8 -29 20 -56 27 -60 7 -5 9 -2 4
7 -4 8 -1 5 6 -6 7 -11 25 -31 39 -45 14 -14 29 -35 33 -47 30 -93 113 -97
210 -10 49 45 57 51 132 105 40 28 103 68 140 89 38 22 103 62 144 90 41 28
77 50 78 48 2 -2 -24 -40 -58 -85 -113 -148 -210 -318 -210 -367 0 -44 41
-107 71 -111 22 -3 27 2 33 28 3 18 30 73 60 123 112 190 246 364 348 451 37
32 68 65 68 73 0 55 -73 114 -117 94 -13 -6 -25 -11 -27 -11 -2 0 -11 18 -21
39 -24 55 -69 76 -165 76 -73 0 -78 -2 -170 -55 -52 -30 -133 -83 -180 -118
-94 -71 -266 -236 -307 -294 -14 -21 -30 -38 -34 -38 -22 0 2 153 56 366 14
54 25 109 25 122 0 38 -40 100 -76 117 -29 14 -37 14 -67 1 -46 -19 -200 -168
-353 -342 -70 -79 -129 -143 -131 -141 -5 5 126 265 138 272 5 4 9 15 9 26 0
11 11 31 24 44 13 13 26 35 30 50 4 16 11 23 18 19 6 -4 8 -3 5 4 -4 5 -4 18
-1 27 5 13 9 14 15 4 5 -9 10 -5 14 14 4 15 11 27 17 27 5 0 7 4 4 9 -4 5 20
47 51 94 32 46 85 124 117 171 67 98 191 244 236 278 17 12 38 33 47 47 16 25
15 26 -27 63 -43 39 -59 43 -96 28z m-149 -227 c-15 -26 -34 -56 -42 -65 -8
-9 -12 -22 -8 -27 3 -6 1 -11 -5 -11 -6 0 -9 -4 -6 -9 3 -5 -1 -14 -9 -21 -13
-11 -14 -10 -9 6 10 33 -29 -20 -150 -201 -162 -242 -188 -287 -292 -500 -52
-104 -94 -187 -94 -184 -2 55 190 429 327 638 117 178 303 434 311 427 2 -2
-8 -26 -23 -53z m-126 -217 c-18 -25 -35 -44 -37 -42 -2 3 10 25 28 51 18 26
34 44 37 42 2 -3 -10 -25 -28 -51z m-73 -104 c-17 -16 -18 -16 -5 5 7 12 15
20 18 17 3 -2 -3 -12 -13 -22z m207 -235 c-79 -68 -153 -144 -283 -287 -118
-131 -160 -170 -125 -116 10 14 22 26 27 26 5 0 7 4 4 9 -3 5 1 14 9 21 8 7
13 16 10 20 -3 5 0 12 6 16 8 5 9 3 4 -7 -5 -8 5 0 21 16 16 17 29 32 30 35
13 41 18 49 25 44 5 -3 9 0 9 6 0 17 81 100 98 100 8 0 12 3 9 6 -8 9 11 44
24 44 6 0 35 20 63 45 29 25 58 45 65 45 6 0 11 5 11 11 0 7 8 18 18 25 14 10
18 10 20 -2 2 -8 -18 -34 -45 -57z m895 -124 c4 -43 -9 -64 -54 -88 -21 -11
-77 -45 -124 -75 -47 -31 -110 -68 -140 -84 -30 -16 -66 -37 -80 -46 -14 -10
-56 -34 -95 -55 -38 -21 -83 -47 -100 -57 -128 -77 78 119 294 280 46 35 121
81 167 103 46 22 86 45 90 50 13 21 39 4 42 -28z m-28 -103 c0 -9 -140 -117
-166 -127 -18 -6 -18 6 0 30 8 10 20 16 27 15 8 -2 13 3 12 9 -2 7 19 24 46
38 27 13 52 29 56 35 8 13 25 13 25 0z m-275 -169 c-8 -14 -80 -51 -97 -50 -7
0 4 7 24 16 21 8 35 19 32 24 -3 5 4 9 15 9 12 0 21 5 21 12 0 6 3 9 6 5 3 -3
3 -11 -1 -16z m-548 -48 c-3 -10 -5 -2 -5 17 0 19 2 27 5 18 2 -10 2 -26 0
-35z m-10 -70 c-3 -10 -5 -4 -5 12 0 17 2 24 5 18 2 -7 2 -21 0 -30z"/>
<path d="M3064 2183 c-6 -5 -23 -26 -37 -48 -23 -33 -24 -41 -12 -48 8 -4 15
-15 15 -23 0 -23 -424 -852 -448 -876 -8 -8 -11 23 -11 118 1 163 -27 515 -47
614 -19 90 -34 110 -84 110 -54 0 -67 -16 -74 -90 -4 -36 -9 -82 -12 -104 -4
-23 -3 -36 3 -33 5 3 15 2 23 -3 16 -10 35 -294 45 -675 l6 -230 -30 -48 c-17
-26 -31 -54 -31 -63 0 -20 30 -65 40 -59 15 9 26 -43 29 -140 4 -140 25 -274
46 -294 14 -13 18 -13 22 -3 4 10 9 8 19 -7 11 -15 23 -20 45 -17 16 2 32 6
36 9 3 4 -2 75 -10 159 -9 84 -18 185 -20 224 l-4 71 86 37 c47 21 98 46 113
57 81 57 326 164 465 203 112 32 120 32 142 4 16 -19 23 -20 52 -12 24 7 35
16 37 32 3 19 -7 27 -60 52 -71 34 -110 37 -208 16 -103 -22 -313 -101 -456
-171 -72 -36 -134 -65 -138 -65 -7 0 114 239 253 501 33 64 61 120 61 125 0
15 154 306 217 411 79 131 86 215 21 246 -45 21 -81 29 -94 20z m-95 -420
c-44 -87 -338 -664 -371 -726 l-17 -32 0 30 c-1 17 9 46 21 65 12 19 52 96 90
170 136 268 310 591 316 586 2 -3 -15 -45 -39 -93z m-113 -127 c-9 -19 -16
-39 -16 -45 0 -6 -4 -11 -9 -11 -5 0 -26 -34 -46 -75 -20 -41 -40 -77 -44 -80
-5 -2 -12 -16 -15 -30 -7 -29 -66 -126 -66 -110 0 18 202 396 208 390 3 -2 -3
-20 -12 -39z m-375 -361 c8 -144 9 -252 4 -270 -7 -21 -11 28 -16 165 -3 108
-9 256 -12 330 -4 97 -3 118 4 75 4 -33 14 -168 20 -300z m16 263 c-2 -13 -4
-5 -4 17 -1 22 1 32 4 23 2 -10 2 -28 0 -40z m10 -120 c-2 -13 -4 -3 -4 22 0
25 2 35 4 23 2 -13 2 -33 0 -45z m16 -190 c6 -136 5 -170 -7 -157 -7 9 -15
309 -7 309 4 0 11 -68 14 -152z m97 -33 c-30 -59 -50 -87 -50 -70 0 12 71 137
76 132 2 -2 -10 -30 -26 -62z m270 -230 c-14 -8 -29 -14 -35 -14 -5 0 1 6 15
14 14 8 30 14 35 14 6 0 -1 -6 -15 -14z m-408 -27 c-8 -8 -9 -4 -5 13 4 13 8
18 11 10 2 -7 -1 -18 -6 -23z m45 -20 c-3 -8 -6 -5 -6 6 -1 11 2 17 5 13 3 -3
4 -12 1 -19z m-47 -88 c-17 -32 -22 -18 -8 21 8 22 13 28 16 17 2 -9 -2 -27
-8 -38z m-66 -5 c-9 -14 -19 -23 -22 -20 -5 4 26 45 35 45 2 0 -4 -11 -13 -25z
m125 -279 c2 -95 -6 -61 -12 54 -4 72 -3 89 3 55 5 -27 9 -77 9 -109z m-34 18
c7 -121 4 -148 -14 -128 -14 15 -23 84 -11 84 5 0 10 9 10 20 0 11 -4 20 -10
20 -5 0 -8 15 -6 33 2 17 4 47 5 65 0 17 5 32 10 32 5 0 12 -57 16 -126z m-38
94 c-3 -8 -6 -5 -6 6 -1 11 2 17 5 13 3 -3 4 -12 1 -19z m82 -238 c0 -9 -4 -8
-9 5 -5 11 -9 27 -9 35 0 9 4 8 9 -5 5 -11 9 -27 9 -35z"/>
<path d="M3970 1910 c-17 -31 -99 -254 -96 -258 2 -2 14 24 27 57 29 73 49 87
49 33 -1 -20 -7 -53 -15 -72 -7 -19 -38 -105 -68 -190 -30 -85 -67 -181 -81
-214 -14 -32 -26 -64 -26 -70 -1 -6 -12 -24 -26 -41 -25 -29 -26 -29 -19 -5 4
14 8 36 9 50 3 40 17 80 26 75 5 -3 6 5 3 17 -4 19 -3 21 7 8 10 -13 11 -12 6
3 -3 10 -6 24 -6 30 0 7 -25 -53 -55 -132 -31 -80 -58 -147 -61 -150 -4 -3 -4
73 -1 169 5 130 13 206 31 295 29 135 32 178 14 193 -7 5 -40 11 -73 13 l-60
4 -12 -36 c-20 -60 -44 -190 -48 -259 -4 -49 -3 -57 4 -32 5 18 12 36 15 40 4
3 5 -94 4 -215 -2 -153 -6 -216 -13 -205 -5 9 -10 86 -11 169 0 84 -3 156 -7
159 -11 11 -8 -277 3 -317 10 -35 74 -98 93 -91 4 1 18 -4 30 -13 23 -16 74
-20 93 -7 25 15 59 102 174 439 21 61 42 118 47 127 5 9 7 -31 4 -96 -4 -123
12 -321 33 -412 12 -48 22 -66 53 -92 21 -18 39 -29 41 -24 2 4 16 1 33 -7 52
-26 76 1 45 50 -25 37 -46 368 -44 682 0 154 -2 288 -7 298 -4 10 -23 20 -46
23 -21 4 -36 10 -33 15 3 5 -2 9 -10 9 -8 0 -20 -9 -26 -20z m-17 -98 c-3 -12
-9 -22 -14 -22 -5 0 -3 11 3 25 13 30 20 28 11 -3z m64 -154 c-2 -13 -4 -5 -4
17 -1 22 1 32 4 23 2 -10 2 -28 0 -40z m-91 -120 c-14 -35 -38 -104 -55 -153
-32 -101 -92 -247 -98 -242 -4 4 11 48 95 282 57 161 75 202 80 187 2 -6 -8
-39 -22 -74z m122 -233 c0 -142 -3 -204 -9 -175 -10 59 -10 453 1 420 4 -14 8
-124 8 -245z m-461 -207 c-3 -7 -5 -2 -5 12 0 14 2 19 5 13 2 -7 2 -19 0 -25z"/>
<path d="M7160 1877 c-54 -15 -64 -22 -161 -107 -141 -123 -300 -328 -371
-478 -35 -73 -34 -112 6 -173 28 -42 53 -54 99 -45 35 7 58 27 145 131 32 39
90 100 128 136 181 173 256 244 260 249 3 2 -20 -47 -50 -110 -80 -170 -129
-306 -130 -366 -1 -66 38 -124 85 -124 26 0 29 3 29 31 0 98 198 540 286 638
62 70 66 81 42 119 -26 42 -87 62 -120 40 -22 -14 -25 -13 -58 24 -31 35 -41
40 -90 44 -30 2 -75 -2 -100 -9z m160 -101 c0 -40 -4 -45 -112 -147 -62 -58
-156 -142 -208 -188 -52 -45 -123 -107 -157 -137 -35 -31 -63 -51 -63 -46 0
19 127 193 213 292 103 116 161 172 219 211 21 14 48 35 58 47 29 31 50 18 50
-32z m-10 -90 c0 -15 -140 -169 -148 -161 -3 3 -11 0 -18 -6 -8 -7 -14 -6 -20
2 -4 7 -3 9 4 5 6 -4 21 7 33 23 12 17 26 28 31 25 4 -3 8 3 8 12 0 19 27 54
42 54 5 0 21 14 35 30 28 34 33 36 33 16z m-7 -181 c-3 -9 -8 -14 -10 -11 -3
3 -2 9 2 15 9 16 15 13 8 -4z m-219 -42 c4 -10 4 -14 0 -11 -3 4 -27 -8 -52
-27 -44 -34 -69 -45 -57 -25 3 6 12 10 18 10 7 0 26 16 42 35 35 39 40 41 49
18z"/>
<path d="M3856 1625 c-9 -26 -7 -32 5 -12 6 10 9 21 6 23 -2 3 -7 -2 -11 -11z"/>
<path d="M3811 1497 c-46 -125 -46 -126 -31 -107 10 12 11 11 6 -9 -6 -31 10
-14 19 19 5 20 4 22 -5 10 -10 -13 -11 -12 -7 5 14 55 51 144 57 140 9 -6 23
25 15 33 -3 3 -5 -1 -5 -9 0 -10 -2 -11 -8 -2 -5 8 -21 -23 -41 -80z"/>
<path d="M6232 1535 c0 -16 2 -22 5 -12 2 9 2 23 0 30 -3 6 -5 -1 -5 -18z"/>
<path d="M6231 1414 c0 -11 3 -14 6 -6 3 7 2 16 -1 19 -3 4 -6 -2 -5 -13z"/>
<path d="M4585 1060 c-19 -8 -19 -9 3 -9 12 -1 22 4 22 9 0 6 -1 10 -2 9 -2 0
-12 -4 -23 -9z"/>
<path d="M4627 1040 c-21 -10 -55 -24 -75 -31 -41 -13 -65 -29 -41 -29 16 1
179 78 164 79 -5 0 -27 -8 -48 -19z"/>
</g>
</svg>
